<?xml version="1.0" standalone="no"?>
<!DOCTYPE svg PUBLIC "-//W3C//DTD SVG 20010904//EN"
 "http://www.w3.org/TR/2001/REC-SVG-20010904/DTD/svg10.dtd">
<svg version="1.0" xmlns="http://www.w3.org/2000/svg"
 width="412.000000pt" height="162.000000pt" viewBox="0 0 512.000000 362.000000"
 preserveAspectRatio="xMidYMid meet">

<g transform="translate(0.000000,362.000000) scale(0.100000,-0.100000)"
fill="#000000" stroke="none">
<path d="M1630 3082 c-55 -6 -70 -13 -108 -51 -90 -89 -97 -250 -16 -356 35
-46 118 -73 173 -56 95 28 161 127 161 240 0 137 -94 237 -210 223z"/>
<path d="M1872 2863 c0 -75 -4 -92 -31 -148 -23 -46 -45 -74 -79 -99 l-47 -34
-33 -136 c-17 -75 -45 -196 -62 -268 -87 -394 -99 -458 -84 -458 5 0 51 26
103 58 l95 57 42 170 c65 264 118 429 181 561 114 239 253 298 309 132 21 -63
21 -237 0 -335 -34 -158 -92 -256 -201 -337 -72 -54 -277 -186 -288 -186 -3 0
-26 -13 -50 -30 -25 -16 -47 -30 -51 -30 -3 0 -49 -26 -103 -59 -356 -212
-932 -501 -1001 -501 -38 0 -95 39 -102 70 -12 50 2 80 72 155 39 41 68 75 66
75 -14 0 -110 -53 -136 -75 -116 -98 -113 -259 5 -299 101 -35 217 -10 398 84
220 114 344 182 500 277 83 50 164 99 182 109 17 11 51 31 75 45 111 67 183
107 308 172 179 93 242 130 323 196 82 65 135 136 178 239 31 73 32 83 33 212
1 129 0 138 -27 193 -61 124 -126 168 -253 175 -76 4 -87 2 -128 -22 -24 -14
-62 -47 -85 -72 -23 -26 -41 -43 -41 -38 0 8 28 111 45 162 5 17 -1 24 -26 38
-18 9 -45 20 -60 24 l-27 8 0 -85z"/>
<path d="M2576 2319 c-15 -12 -39 -40 -53 -63 -62 -97 -144 -363 -158 -513 -7
-70 -7 -73 15 -81 56 -21 69 -9 191 181 27 42 52 77 54 77 2 0 -5 -19 -15 -42
-22 -47 -27 -156 -10 -189 14 -25 62 -49 97 -49 49 1 108 36 158 94 27 31 51
56 54 56 3 0 7 -14 8 -32 3 -38 44 -84 81 -91 41 -8 87 17 123 65 l31 43 -6
-70 c-7 -64 -10 -73 -44 -103 -142 -125 -181 -167 -197 -209 -30 -77 -3 -123
72 -123 55 0 100 26 136 78 28 40 80 162 96 227 9 33 23 49 77 90 36 28 95 81
130 118 l63 68 33 -53 c19 -29 37 -58 41 -65 4 -7 -13 -23 -47 -42 -30 -16
-61 -40 -70 -53 -16 -23 -21 -85 -8 -104 26 -39 112 -45 162 -11 56 38 75 72
75 136 l0 57 65 29 c36 17 86 44 111 61 l47 31 4 -72 c4 -84 21 -111 75 -121
54 -10 115 19 172 82 l49 55 7 -47 c16 -109 125 -140 226 -65 16 12 43 21 61
21 71 1 170 67 224 152 46 72 26 93 -23 24 -33 -47 -122 -122 -162 -138 -45
-17 -52 -5 -30 56 23 66 24 95 5 140 -22 52 -60 76 -122 76 -51 0 -57 -2 -102
-48 -26 -27 -63 -73 -82 -102 -70 -108 -185 -199 -214 -170 -18 18 -11 99 17
191 15 48 27 89 27 92 0 9 -60 26 -74 21 -7 -3 -23 -28 -37 -57 -20 -42 -37
-60 -93 -98 -37 -25 -91 -53 -118 -62 -49 -16 -51 -15 -70 6 -49 56 -88 127
-88 161 0 40 35 88 82 112 27 14 32 14 46 1 12 -13 13 -22 3 -59 -18 -64 -18
-72 1 -76 44 -9 66 125 27 167 -19 20 -28 22 -66 17 -101 -14 -166 -78 -166
-163 0 -41 -5 -50 -70 -119 -66 -71 -157 -144 -157 -127 0 4 12 70 26 145 29
151 27 168 -25 168 -22 0 -30 -8 -46 -42 -58 -133 -85 -186 -109 -215 -33 -39
-72 -44 -85 -11 -8 23 -5 41 25 147 17 62 17 64 -1 77 -38 28 -41 26 -114 -86
-61 -92 -125 -160 -173 -183 -70 -33 -94 8 -58 101 66 172 65 187 -14 186 -58
0 -91 -29 -154 -137 -24 -42 -47 -76 -49 -74 -1 2 3 41 11 87 14 76 20 91 86
187 99 143 133 248 94 287 -21 22 -46 20 -78 -5z m34 -117 c-18 -43 -47 -96
-66 -118 l-33 -39 21 70 c22 75 64 166 82 177 28 18 27 -16 -4 -90z m1829
-268 c26 -33 28 -120 5 -170 l-16 -34 -42 23 c-24 13 -49 38 -61 59 -17 31
-18 40 -6 61 8 14 10 34 6 47 -9 28 7 40 57 40 28 0 42 -6 57 -26z m-128 -180
c13 -14 37 -33 52 -41 23 -12 26 -17 16 -29 -15 -18 -73 -18 -89 1 -15 18 -26
95 -13 95 5 0 20 -12 34 -26z m-721 -127 c0 -61 -16 -83 -68 -93 -39 -8 -62 9
-62 45 0 39 69 100 113 101 14 0 17 -9 17 -53z m-495 -134 c-28 -108 -92 -198
-137 -191 -58 8 -17 101 84 192 34 31 62 55 64 53 1 -1 -4 -25 -11 -54z"/>
<path d="M3967 2104 c-13 -13 -7 -61 8 -74 12 -10 21 -10 41 -1 21 9 25 17 22
44 -3 28 -7 32 -33 35 -17 2 -34 0 -38 -4z"/>
<path d="M1625 1633 c-142 -86 -132 -76 -140 -140 -3 -32 -9 -67 -11 -79 -4
-16 3 -27 33 -45 84 -52 116 -69 120 -66 3 3 73 352 73 363 0 9 -19 1 -75 -33z"/>
<path d="M2653 1383 c-59 -12 -123 -125 -123 -219 0 -118 61 -147 156 -75 l52
39 6 -29 c7 -36 45 -48 81 -25 13 9 33 16 44 16 11 0 33 12 50 26 l31 26 0
-25 c0 -13 7 -30 15 -37 20 -17 39 0 71 62 13 26 27 48 30 48 2 0 0 -9 -6 -19
-14 -26 -13 -74 2 -89 20 -20 56 -13 91 18 l35 30 6 -30 c8 -43 32 -38 64 14
15 24 33 52 40 62 11 17 11 17 2 -3 -14 -29 -13 -76 2 -91 19 -19 54 -14 86
13 30 25 31 25 37 5 15 -48 84 -46 151 5 l32 24 6 -24 c15 -59 88 -54 164 11
l42 36 0 -29 c0 -63 52 -71 105 -16 34 35 35 35 35 12 0 -52 46 -64 95 -25 29
23 29 23 40 3 18 -36 42 -44 76 -24 17 9 40 17 51 17 12 0 37 12 56 26 30 23
33 24 28 7 -3 -10 0 -28 8 -38 12 -17 16 -17 31 -5 9 7 25 31 36 51 10 21 24
41 30 45 8 5 8 1 0 -14 -15 -29 -14 -58 5 -76 22 -22 54 -19 85 7 30 25 64 75
56 83 -2 3 -15 -11 -27 -31 -25 -40 -77 -72 -92 -57 -6 6 -3 27 11 58 19 43
20 49 6 63 -13 13 -17 12 -41 -10 -14 -13 -35 -42 -47 -64 -24 -47 -36 -27
-17 30 19 58 -10 78 -33 22 -13 -30 -75 -87 -95 -87 -5 0 -7 22 -4 49 4 44 2
51 -20 65 -36 24 -68 8 -108 -54 -38 -60 -86 -91 -97 -64 -3 9 -1 37 5 61 15
56 15 63 -3 63 -8 0 -23 -17 -34 -37 -26 -52 -66 -93 -91 -93 -16 0 -20 6 -20
36 0 19 5 56 11 80 10 40 15 45 35 41 13 -2 24 0 24 4 0 9 -13 12 -26 7 -4 -2
-10 7 -15 20 -10 25 -27 29 -35 7 -4 -9 -19 -15 -36 -15 -17 0 -27 -4 -23 -10
3 -5 15 -10 26 -10 18 0 19 -5 13 -37 -8 -48 -62 -106 -114 -123 -46 -15 -60
-8 -60 31 0 36 52 94 75 85 8 -3 15 -1 15 4 0 6 -16 10 -37 10 -31 0 -43 -7
-89 -58 -77 -86 -162 -109 -152 -41 2 17 12 25 38 32 66 16 76 67 13 67 -35 0
-48 -10 -110 -87 -32 -41 -68 -59 -79 -42 -3 6 2 32 12 60 16 43 16 51 4 59
-21 13 -50 -9 -77 -56 -13 -21 -24 -43 -26 -49 -3 -5 -8 -7 -12 -3 -4 4 0 28
9 54 12 35 13 51 5 58 -8 8 -14 6 -23 -8 -30 -50 -74 -102 -96 -113 -23 -11
-25 -10 -28 9 -2 12 1 40 8 61 24 81 -41 66 -81 -18 -12 -25 -25 -45 -30 -45
-12 0 -11 11 6 61 10 28 12 46 6 52 -12 12 -41 -9 -41 -28 0 -14 -75 -85 -90
-85 -6 0 -7 18 -4 43 7 52 -11 80 -51 80 -19 0 -35 -8 -45 -23 -33 -50 -107
-119 -134 -126 -44 -11 -61 6 -64 64 -4 60 18 142 51 189 36 53 83 57 71 6 -5
-18 -3 -24 5 -19 17 11 14 63 -5 70 -9 3 -16 5 -17 5 -1 -1 -12 -4 -24 -6z
m186 -187 c15 -18 11 -78 -5 -83 -19 -6 -44 26 -44 56 0 42 25 56 49 27z m682
-19 c-15 -15 -24 -18 -32 -10 -8 8 -4 15 12 26 31 22 46 9 20 -16z m679 18
c16 -19 4 -85 -15 -85 -22 0 -44 42 -38 73 6 30 33 37 53 12z m-1390 -109
c-14 -14 -40 2 -40 24 0 20 1 20 24 3 14 -10 21 -22 16 -27z m1360 2 c0 -5 -9
-8 -19 -8 -17 0 -31 18 -31 41 0 11 49 -22 50 -33z"/>
<path d="M3986 1261 c-3 -5 0 -14 8 -20 10 -8 16 -8 25 2 6 8 8 17 4 20 -9 10
-31 9 -37 -2z"/>
<path d="M1000 575 c0 -50 4 -85 10 -85 6 0 10 27 10 60 0 33 4 60 9 60 5 0
19 -12 31 -27 l21 -27 23 27 c13 15 26 27 30 27 3 0 6 -27 6 -60 0 -33 4 -60
10 -60 13 0 13 157 1 165 -5 3 -24 -12 -41 -32 l-31 -38 -32 38 c-18 20 -35
37 -39 37 -5 0 -8 -38 -8 -85z"/>
<path d="M1270 592 c0 -80 15 -102 72 -102 51 0 68 24 68 98 0 33 -4 64 -10
67 -6 4 -10 -15 -10 -50 0 -71 -12 -95 -48 -95 -41 0 -52 17 -52 81 0 32 -4
61 -10 64 -6 4 -10 -19 -10 -63z"/>
<path d="M1520 576 l0 -86 50 0 c28 0 50 5 50 10 0 6 -18 10 -40 10 l-40 0 0
69 c0 39 -4 73 -10 76 -6 4 -10 -25 -10 -79z"/>
<path d="M1680 650 c0 -5 14 -10 30 -10 l30 0 0 -75 c0 -43 4 -75 10 -75 6 0
10 32 10 75 l0 75 36 0 c21 0 33 4 29 10 -3 6 -37 10 -76 10 -39 0 -69 -4 -69
-10z"/>
<path d="M1920 575 c0 -50 4 -85 10 -85 6 0 10 35 10 85 0 50 -4 85 -10 85 -6
0 -10 -35 -10 -85z"/>
<path d="M2047 653 c-4 -3 -7 -42 -7 -85 l0 -78 49 0 c99 0 144 78 82 141 -24
23 -38 29 -74 29 -24 0 -47 -3 -50 -7z m101 -29 c15 -10 22 -25 22 -49 0 -39
-29 -65 -72 -65 -28 0 -28 1 -28 65 0 64 0 65 28 65 15 0 38 -7 50 -16z"/>
<path d="M2300 575 c0 -50 4 -85 10 -85 6 0 10 35 10 85 0 50 -4 85 -10 85 -6
0 -10 -35 -10 -85z"/>
<path d="M2432 648 c-21 -21 -13 -52 18 -73 51 -35 50 -72 -2 -61 -21 4 -28 2
-26 -7 6 -17 56 -21 74 -6 25 21 16 55 -23 86 -42 35 -38 59 9 49 21 -4 28 -2
26 7 -6 17 -60 21 -76 5z"/>
<path d="M2629 631 c-38 -39 -38 -78 0 -115 24 -23 36 -27 71 -24 24 2 45 9
48 16 3 9 -6 11 -37 6 -52 -8 -81 14 -81 61 0 46 29 69 80 62 40 -5 55 5 24
17 -37 14 -76 6 -105 -23z"/>
<path d="M2857 653 c-11 -11 -8 -163 3 -163 6 0 10 35 10 85 0 85 -1 91 -13
78z"/>
<path d="M2987 653 c-11 -11 -8 -163 3 -163 6 0 10 15 10 34 0 30 4 34 32 40
57 11 76 47 42 80 -15 16 -75 22 -87 9z m73 -28 c17 -20 4 -35 -31 -35 -24 0
-29 4 -29 25 0 20 5 25 24 25 13 0 29 -7 36 -15z"/>
<path d="M3190 576 l0 -86 51 0 c31 0 48 4 44 10 -3 6 -22 10 -41 10 l-34 0 0
69 c0 39 -4 73 -10 76 -6 4 -10 -25 -10 -79z"/>
<path d="M3380 576 c0 -51 4 -86 10 -86 6 0 10 33 10 79 0 44 -4 83 -10 86 -6
4 -10 -25 -10 -79z"/>
<path d="M3510 575 c0 -50 4 -85 10 -85 6 0 10 28 10 63 l1 62 57 -62 c32 -35
61 -63 65 -63 4 0 7 39 7 87 0 98 -17 105 -22 9 l-3 -59 -48 59 c-74 90 -77
90 -77 -11z"/>
<path d="M3792 597 c-16 -36 -33 -74 -37 -86 -9 -30 13 -27 25 4 8 21 16 25
49 25 33 0 40 -4 45 -25 4 -14 13 -25 21 -25 10 0 5 20 -21 78 -20 42 -39 81
-43 85 -5 5 -22 -21 -39 -56z m58 -29 c0 -5 -11 -8 -24 -8 -24 0 -24 2 -14 31
l11 32 13 -24 c7 -13 13 -27 14 -31z"/>
<path d="M3990 575 c0 -50 4 -85 10 -85 6 0 10 15 10 34 0 59 21 54 74 -19 24
-33 28 -10 5 29 -16 28 -19 40 -10 49 17 17 13 55 -8 67 -11 5 -33 10 -50 10
l-31 0 0 -85z m75 40 c0 -14 -8 -21 -27 -23 -24 -3 -28 0 -28 23 0 23 4 26 28
23 19 -2 27 -9 27 -23z"/>
</g>
</svg>
